<?xml version="1.0" standalone="no"?>
<!DOCTYPE svg PUBLIC "-//W3C//DTD SVG 20010904//EN"
 "http://www.w3.org/TR/2001/REC-SVG-20010904/DTD/svg10.dtd">
<svg version="1.0" xmlns="http://www.w3.org/2000/svg"
 width="640.000000pt" height="426.000000pt" viewBox="0 0 640.000000 426.000000"
 preserveAspectRatio="xMidYMid meet">
<metadata>
Created by potrace 1.16, written by Peter Selinger 2001-2019
</metadata>
<g transform="translate(0.000000,426.000000) scale(0.100000,-0.100000)"
fill="#000000" stroke="none">
<path d="M30 4254 c0 -3 14 -54 31 -113 18 -58 35 -119 39 -136 4 -16 24 -85
44 -153 20 -68 36 -131 36 -140 -1 -16 -2 -15 -14 0 -7 10 -27 21 -45 24 -38
8 -39 -1 -10 -98 15 -53 26 -71 43 -78 22 -8 52 -67 41 -78 -3 -3 -5 -1 -5 5
0 5 -7 10 -15 11 -8 1 -22 3 -30 4 -32 3 -77 94 -54 109 6 4 7 9 2 12 -5 3
-27 65 -48 137 -22 72 -41 127 -43 122 -2 -6 13 -65 32 -133 20 -67 34 -124
32 -127 -10 -9 -44 10 -54 31 -8 16 -11 -245 -11 -936 -1 -931 0 -957 18 -948
10 6 76 26 147 44 71 19 203 57 294 85 185 56 349 102 367 102 24 0 235 -334
440 -697 38 -68 39 -72 20 -77 -32 -8 -50 8 -73 66 -11 29 -26 52 -33 50 -7
-1 -10 2 -6 8 6 10 -20 57 -72 133 -12 18 -37 60 -55 94 -17 34 -35 60 -39 58
-4 -3 -12 2 -19 10 -9 11 -9 15 -1 15 7 0 9 5 6 10 -4 6 -11 7 -17 4 -6 -4 -8
-2 -5 3 8 12 -13 57 -28 62 -5 2 -16 12 -23 22 -14 20 -47 25 -57 9 -3 -5 2
-10 12 -10 15 0 16 -2 3 -10 -13 -8 -12 -10 3 -10 11 0 15 -4 11 -12 -5 -7 -2
-9 8 -6 8 4 15 1 15 -7 0 -25 -33 -3 -61 41 -18 28 -26 51 -21 62 6 15 8 15
22 -5 15 -22 51 -34 38 -13 -3 6 -1 10 6 10 8 0 7 5 -3 18 -8 9 -18 25 -21 35
-4 9 -12 16 -19 15 -7 -2 -13 4 -13 12 -2 28 -24 70 -37 70 -7 0 -65 -16 -128
-36 -63 -19 -125 -37 -137 -40 -12 -2 -35 -9 -50 -15 -16 -6 -35 -12 -43 -14
-18 -4 -262 -72 -305 -85 -16 -5 -56 -17 -87 -25 l-58 -16 0 -66 c0 -65 2 -70
75 -194 41 -71 75 -131 75 -134 0 -4 13 -25 28 -48 16 -23 34 -57 42 -75 7
-19 18 -39 24 -45 6 -7 23 -37 39 -67 15 -30 36 -69 47 -87 l19 -32 -27 -10
c-21 -7 -23 -10 -7 -10 30 -1 105 -32 105 -44 0 -5 8 -3 17 4 11 10 14 10 9 2
-5 -9 0 -13 13 -13 12 0 21 -5 21 -12 0 -6 3 -8 6 -5 4 3 15 2 26 -4 23 -13
39 -2 18 11 -11 7 -11 10 -2 10 7 0 15 -7 18 -15 4 -11 11 -12 24 -5 9 5 21 6
25 2 5 -4 5 -1 1 5 -4 7 -2 13 4 13 6 0 10 -8 8 -18 -2 -12 -11 -16 -28 -14
-22 2 -23 1 -8 -8 11 -7 18 -22 17 -38 -1 -20 -3 -22 -6 -8 -7 25 -31 49 -52
52 -9 1 -26 5 -38 8 -13 2 -23 1 -23 -5 0 -5 8 -9 18 -10 14 0 14 -2 -3 -9
l-20 -9 20 -1 c17 -1 17 -3 -5 -11 l-25 -10 30 -27 c17 -15 22 -23 12 -19 -10
4 -23 7 -27 7 -14 0 -76 66 -73 77 2 5 -11 15 -29 21 -18 6 -60 20 -92 31 -80
28 -83 26 -11 -8 51 -23 57 -28 37 -33 -12 -3 -22 -2 -22 3 0 15 -81 49 -116
49 -17 0 -37 -7 -44 -15 -7 -8 -18 -15 -24 -15 -6 1 2 11 18 24 31 26 29 29
-27 44 -34 10 -38 9 -33 -5 5 -13 4 -14 -8 -4 -8 7 -21 9 -27 5 -7 -4 -9 -3
-5 4 3 6 2 13 -4 17 -6 4 -10 -12 -10 -42 l0 -48 73 -29 c39 -16 126 -53 193
-82 67 -30 123 -54 126 -54 3 0 23 -7 43 -16 30 -12 35 -18 24 -26 -10 -7 -9
-8 7 -3 26 7 94 -23 94 -42 0 -14 39 -38 48 -29 3 3 0 6 -7 6 -7 0 -10 4 -7 9
7 10 108 -25 215 -75 108 -51 143 -62 256 -85 115 -23 110 -22 195 -44 115
-29 198 -56 313 -101 61 -24 115 -44 119 -44 4 0 31 -11 60 -23 29 -13 69 -30
88 -37 19 -8 64 -27 100 -43 60 -27 66 -28 75 -12 5 10 24 34 41 54 101 116
124 147 124 168 0 23 -1 23 -18 6 -10 -10 -38 -43 -62 -73 -25 -30 -49 -58
-55 -63 -11 -8 -74 0 -90 12 -5 5 -23 13 -40 19 -16 6 -73 27 -125 47 -52 20
-102 38 -110 40 -8 2 -49 16 -90 33 -71 28 -337 109 -389 119 -13 2 -40 8 -60
12 l-36 8 75 37 c120 58 168 89 225 145 68 67 98 128 93 193 -4 58 0 59 122
24 47 -13 111 -29 143 -36 31 -6 57 -16 57 -21 0 -6 4 -8 10 -4 13 8 161 -36
154 -46 -3 -5 -12 -9 -20 -9 -8 0 -12 5 -9 10 4 7 -2 9 -19 4 -16 -4 -26 -2
-26 5 0 6 -7 8 -15 5 -8 -4 -15 -1 -15 6 0 6 -5 8 -10 5 -5 -3 -10 0 -10 7 0
10 -2 10 -8 1 -5 -8 -13 -9 -22 -3 -22 14 -30 12 -30 -7 0 -15 -2 -16 -10 -3
-8 13 -11 12 -24 -5 -8 -11 -18 -17 -22 -13 -4 4 -2 13 4 21 8 10 6 13 -9 13
-11 0 -18 -5 -15 -11 5 -14 -41 -18 -49 -5 -3 6 1 10 9 10 8 0 17 4 20 9 9 13
-19 7 -38 -8 -20 -17 -33 -7 -18 12 9 11 6 16 -13 25 -23 11 -25 10 -16 -6 7
-13 3 -24 -15 -45 -22 -26 -29 -27 -24 -2 1 6 -4 5 -10 -2 -18 -17 -5 -30 40
-37 42 -7 93 1 86 13 -3 4 4 8 15 8 24 2 15 -16 -14 -26 -16 -6 -7 -11 44 -25
74 -20 157 -49 286 -100 51 -20 95 -36 98 -36 3 0 5 9 5 20 0 27 20 48 41 43
9 -3 20 1 24 8 5 7 4 10 -3 5 -6 -3 -14 -1 -17 4 -5 8 -13 6 -25 -5 -10 -9
-24 -13 -35 -9 -17 7 -16 8 3 15 12 5 22 14 22 20 0 8 -5 7 -17 -2 -10 -8 -14
-9 -10 -2 4 6 2 15 -4 19 -7 4 -9 3 -6 -3 9 -14 -19 -37 -33 -28 -8 5 -5 12 7
22 13 10 14 13 3 10 -8 -2 -20 3 -27 12 -10 14 -11 13 -6 -6 4 -16 1 -23 -9
-23 -11 0 -14 11 -13 38 1 31 5 36 20 34 49 -9 312 -116 338 -138 16 -13 32
-24 37 -24 8 0 60 64 60 74 0 3 -9 10 -21 16 -19 11 -31 14 -88 26 -16 3 -33
-3 -50 -18 -20 -18 -22 -18 -10 -3 24 30 34 49 22 42 -6 -4 -38 7 -72 24 -68
34 -109 42 -129 27 -9 -8 -11 -7 -6 7 6 15 4 16 -14 6 -11 -6 -22 -16 -24 -21
-2 -8 -11 -8 -28 0 -21 9 -22 10 -3 6 12 -2 28 3 37 13 14 15 11 18 -27 35
-40 17 -373 107 -527 142 -79 18 -142 42 -175 68 -19 15 -19 15 8 16 15 0 44
-7 65 -16 20 -8 75 -24 122 -35 92 -21 154 -38 270 -75 41 -13 110 -31 154
-40 76 -16 418 -137 524 -187 l54 -25 -36 -40 c-20 -22 -36 -42 -36 -44 0 -10
157 -30 340 -42 128 -9 161 -14 107 -15 -56 -1 -76 -4 -71 -13 4 -6 3 -9 -2
-6 -5 3 -65 9 -134 13 -155 9 -195 13 -195 15 0 3 -31 9 -82 16 -45 6 -57 -7
-30 -35 10 -11 9 -13 -5 -8 -9 3 -33 9 -52 13 -20 3 -36 10 -36 15 0 5 12 4
26 -1 36 -14 44 -13 44 8 0 14 -16 21 -82 35 -111 23 -108 23 -104 -21 3 -20
10 -86 16 -145 6 -60 13 -181 14 -270 2 -89 4 -174 5 -189 l1 -28 140 0 c135
0 140 1 140 21 0 11 4 18 10 14 5 -3 7 -12 3 -20 -4 -12 4 -15 36 -15 50 0 53
16 6 36 -33 14 -52 32 -20 20 8 -3 15 -1 15 4 0 6 -6 10 -12 11 -7 0 -22 2
-33 4 -71 13 -95 14 -95 6 0 -12 29 -23 41 -15 5 3 9 3 9 0 0 -3 -10 -10 -21
-17 -13 -7 -19 -7 -15 -1 7 12 -15 20 -59 22 -46 3 -57 1 -50 -10 8 -13 2 -13
-30 2 -34 15 -32 27 5 23 18 -2 30 1 30 7 0 6 -3 8 -7 5 -3 -4 -12 1 -20 11
-10 12 -16 14 -19 5 -14 -32 -19 -4 -20 105 -1 114 -4 151 -24 290 -12 87 -13
82 10 82 11 0 20 -4 20 -9 0 -9 94 -35 178 -50 30 -4 50 -5 45 0 -4 4 -21 10
-38 13 -59 11 -86 18 -82 22 2 2 26 0 53 -5 27 -5 69 -12 94 -16 25 -3 59 -8
75 -12 17 -3 86 -11 155 -18 74 -8 104 -13 74 -14 -36 -1 -54 -6 -57 -16 -4
-8 -1 -17 5 -21 7 -5 8 -3 3 5 -5 10 4 11 41 6 27 -3 60 -5 74 -5 22 0 23 -1
9 -15 -12 -12 -22 -14 -42 -6 -21 8 -25 7 -20 -4 3 -8 11 -15 19 -15 18 0 18
2 -6 -48 -11 -22 -20 -51 -21 -64 l-1 -23 -7 24 c-6 22 -8 23 -23 8 -21 -21
-35 -22 -18 -2 10 12 8 16 -15 25 -30 11 -55 -1 -55 -26 0 -8 -5 -14 -10 -14
-7 0 -7 -6 0 -20 8 -15 7 -26 -5 -44 -11 -16 -13 -26 -5 -31 6 -3 10 -3 9 2
-4 23 3 30 26 25 14 -2 28 -8 30 -12 3 -5 23 -6 45 -4 38 5 39 4 46 -31 3 -19
10 -35 16 -35 5 0 7 -4 4 -9 -3 -5 3 -20 15 -32 19 -23 20 -23 10 -2 -20 41
-10 48 11 8 11 -22 35 -54 52 -71 18 -17 30 -37 28 -45 -2 -9 -1 -10 5 -3 4 6
23 14 41 17 24 5 32 3 32 -8 0 -8 8 -15 18 -15 16 0 18 9 17 75 0 41 2 75 4
75 2 0 12 -7 21 -15 16 -14 16 -13 6 19 -7 24 -14 32 -22 25 -7 -6 -17 -2 -29
11 -18 19 -17 20 3 20 16 0 20 4 15 18 -6 14 -4 15 9 4 14 -11 16 -9 15 10 0
13 3 32 7 43 7 17 6 17 -4 5 -9 -12 -10 -10 -5 10 4 14 12 30 18 35 7 7 8 6 3
-3 -10 -17 0 -15 24 5 12 11 16 20 9 24 -7 4 -5 11 5 21 8 9 12 18 9 22 -6 6
12 10 30 7 4 -1 5 10 1 24 -6 23 -3 25 26 25 23 0 33 -5 37 -20 3 -11 9 -17
14 -14 5 2 11 -6 15 -20 4 -17 11 -23 25 -21 12 3 19 -2 20 -13 0 -11 2 -12 6
-4 3 7 -1 20 -8 28 -7 8 -8 14 -3 13 5 -2 19 1 32 5 24 8 27 36 4 44 -7 2 -10
-2 -6 -12 3 -9 1 -16 -5 -16 -6 0 -13 0 -16 0 -3 0 -5 3 -6 8 0 4 -8 15 -16
25 -9 9 -11 17 -5 17 6 0 14 -5 17 -10 4 -6 15 -8 25 -5 12 4 26 -2 39 -16 17
-18 18 -25 8 -38 -10 -12 -9 -14 6 -8 9 3 17 3 17 -2 0 -13 -27 -32 -41 -29
-20 4 -22 -37 -4 -76 22 -46 13 -58 -41 -55 -25 2 -48 -2 -54 -9 -7 -8 -7 -9
1 -3 5 4 29 4 52 0 23 -4 46 -8 51 -9 4 0 6 -9 3 -20 -3 -11 -1 -20 3 -20 5 0
7 -8 5 -17 -2 -10 -4 -20 -4 -23 -1 -3 -5 1 -10 8 -6 10 -10 10 -20 -2 -11
-13 -6 -15 32 -13 39 2 43 0 33 -15 -5 -9 -12 -15 -14 -13 -3 2 -13 -6 -24
-18 -11 -12 -16 -16 -12 -8 5 11 3 13 -10 8 -10 -4 -34 -7 -54 -7 -28 0 -33
-3 -22 -10 9 -6 10 -10 3 -10 -7 0 -17 8 -22 17 -10 17 -10 17 -11 -1 0 -14
-5 -17 -21 -13 -20 5 -20 5 -3 -14 9 -10 13 -19 8 -19 -5 -1 2 -7 16 -15 32
-18 136 -20 143 -2 4 9 6 9 6 0 1 -16 161 -19 161 -3 0 6 -9 10 -20 10 -22 0
-27 15 -7 24 6 2 2 4 -10 2 -12 -1 -26 -6 -30 -11 -5 -4 -2 -5 5 -1 6 4 12 2
12 -4 0 -7 -7 -9 -16 -6 -9 3 -24 6 -35 6 -10 0 -19 5 -19 11 0 5 4 7 10 4 11
-7 70 34 70 49 0 6 10 17 21 24 16 10 18 17 10 25 -13 13 -15 41 -3 33 5 -3
10 15 10 39 2 38 -2 48 -33 78 -36 35 -81 142 -64 153 5 3 9 11 9 17 0 7 -4 6
-10 -3 -8 -13 -11 -13 -25 2 -8 10 -10 14 -3 8 7 -6 16 -4 24 8 15 20 18 36 5
28 -5 -3 -15 2 -22 12 -12 15 -12 16 2 4 14 -10 18 -10 23 3 5 14 9 14 38 0
l33 -16 -28 25 c-30 28 -30 28 36 28 21 1 27 5 22 15 -3 11 -1 13 10 9 8 -3
15 -1 15 5 0 6 6 9 14 6 8 -3 17 -1 20 6 3 7 4 3 3 -8 -2 -11 -9 -19 -16 -17
-7 1 -10 -2 -6 -8 3 -5 23 -10 44 -10 29 0 41 5 50 23 l12 22 -5 -22 c-5 -26
3 -29 23 -11 11 11 12 10 6 0 -6 -11 10 -12 81 -8 49 3 177 10 284 16 107 5
238 13 290 17 52 4 104 7 115 6 11 -1 15 1 8 3 -7 3 -9 12 -6 20 6 16 -13 44
-30 44 -6 0 -2 -7 9 -15 19 -15 19 -15 0 -30 -11 -8 -37 -15 -58 -15 -31 0
-38 4 -36 16 2 10 -3 19 -10 22 -9 3 -13 -3 -10 -19 3 -20 -2 -24 -29 -27 -18
-2 -42 2 -54 8 -15 9 -23 9 -28 1 -10 -16 -183 -19 -188 -4 -3 7 10 16 29 21
l33 9 -46 8 c-57 9 -81 5 -86 -15 -4 -12 -3 -13 5 -1 8 11 11 9 17 -8 3 -11
10 -21 15 -21 5 0 7 6 4 14 -3 7 2 16 12 20 13 5 14 4 6 -7 -9 -10 -8 -17 0
-25 9 -9 -2 -12 -47 -12 -38 0 -55 4 -46 9 11 7 11 9 0 14 -10 4 -9 6 4 6 9 1
17 5 17 10 0 13 -17 23 -23 14 -7 -11 -323 -15 -429 -5 -63 5 -89 4 -92 -4 -2
-6 -24 -21 -48 -32 -35 -16 -70 -21 -193 -24 -82 -3 -136 -3 -120 0 25 4 27 5
11 12 -11 4 44 11 125 17 132 9 149 12 184 36 38 26 45 27 179 27 136 0 139 0
120 19 -10 10 -28 17 -40 15 -12 -2 -29 5 -39 16 -10 11 -13 20 -8 20 6 0 13
-7 17 -15 7 -18 25 -20 22 -2 -3 22 -98 127 -109 120 -6 -3 -7 -1 -3 5 3 5 3
12 -2 14 -4 1 -19 19 -32 38 -22 31 34 -25 175 -178 l48 -53 75 2 c40 1 68 5
62 9 -8 5 -7 9 4 13 9 4 16 2 16 -3 0 -10 72 -14 82 -5 9 9 -4 55 -16 55 -6 0
-36 -12 -66 -26 -30 -14 -70 -27 -90 -30 -30 -4 -39 -1 -60 26 -14 17 -37 44
-52 59 -19 20 -24 31 -15 34 8 4 6 6 -4 6 -19 1 -58 41 -40 41 13 0 47 29 40
33 -2 2 -17 9 -34 16 l-30 13 39 19 c43 21 86 25 86 9 0 -5 -12 -10 -27 -11
-27 0 -27 -1 -5 -9 12 -5 30 -7 40 -3 13 5 14 3 6 -6 -9 -10 -21 -10 -50 -2
-54 15 -74 13 -44 -3 31 -18 101 -13 131 8 19 13 20 16 6 16 -9 0 -17 5 -17
10 0 6 -7 10 -17 10 -14 0 -14 2 2 20 10 11 28 20 39 19 20 0 20 -1 -2 -11
-25 -13 -28 -23 -8 -31 10 -4 13 -1 9 9 -3 7 -1 14 5 14 5 0 12 -7 16 -15 3
-8 13 -15 23 -14 11 0 13 3 6 6 -18 7 -16 23 2 23 8 0 15 -4 15 -10 0 -5 4
-10 10 -10 5 0 7 7 4 15 -5 11 -1 14 12 9 18 -5 18 -5 0 10 -15 12 -16 16 -5
16 8 0 31 -16 51 -35 36 -36 37 -36 72 -21 20 8 36 20 36 25 0 6 11 11 24 11
14 0 28 4 31 10 3 5 11 10 17 10 6 0 5 -7 -3 -17 -13 -15 -12 -15 8 -4 13 6
20 17 17 25 -3 8 -1 17 5 21 6 3 9 0 5 -8 -3 -8 0 -18 6 -22 6 -4 9 -1 8 7 -2
9 8 13 30 13 18 0 36 6 41 13 4 7 12 12 17 11 21 -4 35 2 29 11 -4 6 1 7 11 3
13 -5 15 -3 9 8 -6 11 -5 11 5 2 16 -15 61 4 54 22 -3 7 -1 16 5 20 7 3 8 0 5
-9 -8 -22 3 -20 28 4 25 23 70 19 103 -8 13 -11 11 -6 -5 12 -14 16 -19 26
-12 22 18 -11 54 4 48 19 -10 26 25 24 73 -4 26 -16 63 -32 82 -35 26 -5 29
-4 13 3 -56 25 -90 81 -48 81 20 0 17 20 -7 46 -22 24 -18 47 6 37 10 -3 13 0
10 8 -3 8 -1 28 4 44 8 25 9 26 10 8 1 -34 31 -106 52 -124 10 -9 15 -19 12
-23 -4 -3 1 -6 10 -6 8 0 18 -6 21 -12 3 -7 3 3 0 22 -4 19 -13 42 -20 51 -13
14 -12 18 0 29 14 11 21 34 29 97 2 12 6 25 10 29 3 4 5 -3 2 -14 -2 -12 3
-23 12 -26 12 -5 14 -1 10 14 -3 11 -1 20 4 20 5 0 9 -4 9 -10 0 -5 6 -9 13
-7 7 1 11 -8 10 -23 -1 -14 1 -19 3 -12 3 6 12 12 20 12 9 0 13 -4 10 -9 -3
-5 1 -12 10 -15 12 -5 15 -16 12 -40 -2 -19 0 -32 5 -29 5 3 7 23 5 44 -3 32
-1 36 9 26 18 -18 -13 -121 -34 -113 -7 3 -12 2 -11 -2 5 -26 -51 -94 -92
-111 -21 -8 -22 -10 -5 -10 11 -1 35 8 53 19 18 11 36 20 40 20 4 0 0 -5 -8
-10 -17 -11 -20 -30 -7 -47 9 -12 3 -16 -58 -39 -11 -4 -26 -6 -34 -5 -7 1
-24 -8 -38 -21 -18 -17 -26 -19 -32 -10 -4 7 -15 10 -24 6 -13 -5 -16 -2 -11
9 4 12 11 14 31 6 31 -12 30 -12 37 7 4 12 1 14 -14 9 -11 -4 -20 -2 -20 3 0
6 -9 8 -20 5 -11 -3 -20 -9 -20 -14 0 -5 -8 -9 -19 -9 -10 0 -29 -8 -42 -19
-13 -10 -29 -16 -35 -14 -6 2 -31 -5 -55 -16 l-44 -19 40 5 c22 4 43 11 48 17
5 8 10 6 17 -4 7 -10 10 -11 10 -2 0 10 4 10 20 0 16 -10 22 -10 32 1 11 11
10 13 -3 8 -9 -3 -16 0 -16 9 0 7 5 10 10 7 6 -3 7 -1 3 5 -4 7 -1 12 7 12 17
0 30 -27 21 -41 -3 -5 21 1 53 12 32 12 60 26 61 31 2 4 8 6 12 3 17 -10 75
22 110 61 19 21 25 31 14 21 -19 -16 -22 -16 -27 -3 -4 9 -1 15 6 13 7 -1 11
3 10 9 -1 7 6 10 17 7 14 -4 26 6 47 39 33 52 118 161 187 242 56 65 64 87 39
107 -14 12 -16 12 -11 -2 4 -10 -2 -26 -13 -37 -24 -26 -24 -33 -1 -26 15 5
15 4 -1 -6 -24 -15 -41 0 -32 29 8 27 113 141 129 141 7 0 18 16 25 35 14 40
105 144 117 133 10 -11 -13 -59 -28 -57 -39 5 -52 -17 -25 -40 20 -16 28 -2
15 23 -10 19 -10 20 6 7 14 -12 18 -12 31 5 8 10 15 15 15 10 0 -5 9 3 21 18
17 22 19 29 8 42 -7 8 -21 13 -31 11 -22 -6 -13 11 36 68 26 31 34 35 33 20
-2 -15 3 -19 17 -17 17 3 18 2 7 -12 -8 -9 -12 -18 -10 -21 3 -2 24 18 48 46
35 40 40 51 29 62 -157 146 -210 189 -221 178 -9 -10 -8 -14 5 -22 9 -5 38
-30 64 -54 25 -25 49 -43 53 -41 12 8 12 -54 0 -76 -16 -29 -187 -246 -264
-333 -34 -38 -87 -100 -118 -138 l-57 -67 -1 42 c-3 161 -104 313 -253 378
-25 12 -44 25 -41 31 4 5 8 9 11 9 3 0 2 -4 -1 -10 -3 -5 1 -10 11 -10 12 0
15 6 12 25 -3 13 -2 22 2 20 4 -3 13 16 19 41 6 24 16 42 21 39 5 -3 7 4 5 16
-3 14 2 23 14 26 19 5 84 78 79 87 -2 3 6 12 17 20 11 9 15 16 9 16 -7 0 -30
-25 -53 -55 -23 -30 -43 -55 -45 -55 -3 0 5 19 17 42 23 45 65 85 82 80 5 -2
7 -1 3 3 -4 4 2 23 13 43 10 20 16 46 13 57 -5 19 -4 19 9 2 16 -20 23 -14 49
40 14 29 14 31 -1 25 -13 -5 -14 -3 -4 10 7 8 9 18 5 22 -4 4 -2 7 3 5 6 -1
22 1 36 5 22 6 35 -2 98 -64 45 -43 77 -68 83 -62 5 5 -26 42 -78 93 -48 46
-101 97 -117 113 l-29 28 -14 -21 c-9 -12 -20 -18 -26 -15 -6 4 -8 2 -4 -4 3
-6 2 -13 -4 -17 -5 -3 -10 -1 -10 6 0 10 -3 10 -12 1 -10 -10 -10 -14 0 -21
10 -6 10 -10 -3 -21 -13 -11 -15 -10 -9 4 4 9 1 16 -6 16 -9 0 -8 6 3 18 10
10 17 24 17 30 0 7 4 12 9 12 10 0 61 75 61 89 0 6 -7 8 -16 4 -11 -4 -12 -8
-4 -13 8 -5 7 -9 -3 -13 -18 -7 -17 14 2 37 8 10 22 14 35 11 12 -3 15 -2 8 1
-9 4 -7 11 9 25 12 10 17 19 10 19 -7 0 -9 5 -6 10 3 6 1 10 -5 10 -6 0 -8 5
-5 10 3 5 2 10 -4 10 -5 0 -13 -4 -16 -10 -3 -5 -1 -10 6 -10 10 0 10 -3 1
-12 -9 -9 -17 -9 -34 0 l-23 12 22 -6 c16 -4 22 -1 18 8 -5 16 82 71 97 62 6
-4 8 -2 5 3 -5 8 111 93 127 93 2 0 -1 -21 -5 -47 -5 -27 -9 -55 -8 -63 1 -8
0 -17 -1 -20 -1 -3 -4 -32 -6 -65 -7 -74 -11 -113 -14 -122 -1 -5 -1 -18 -1
-30 1 -12 -5 -25 -14 -30 -13 -8 -8 -16 30 -50 l46 -41 15 36 c16 40 16 115
-1 77 -8 -19 -34 -44 -46 -45 -8 0 -2 96 16 257 8 73 15 139 15 148 0 8 5 15
11 15 7 0 9 -10 5 -25 -4 -14 -2 -25 3 -25 6 0 13 17 17 38 9 49 24 78 19 35
-2 -18 -6 -37 -9 -42 -3 -5 -2 -20 3 -33 l10 -23 0 25 c1 14 5 57 10 95 5 39
13 99 16 135 4 36 11 87 15 113 4 26 4 50 0 52 -4 3 -1 19 8 37 l16 33 173
-86 c95 -47 179 -92 188 -99 8 -7 15 -11 16 -9 0 2 35 121 78 264 l77 260 55
-2 c30 -1 117 -18 194 -39 77 -20 150 -39 163 -41 l22 -5 0 401 0 401 -1307 0
-1308 0 65 -39 c36 -21 301 -179 590 -351 289 -172 598 -356 687 -409 89 -53
162 -100 163 -105 0 -4 -7 -5 -15 -2 -10 4 -20 -3 -27 -19 -6 -14 -14 -25 -17
-25 -9 0 -46 27 -76 53 -23 22 -263 166 -1005 607 -206 122 -399 238 -428 256
-50 33 -57 35 -127 32 l-74 -3 66 -50 c36 -27 73 -54 82 -60 9 -5 38 -27 64
-47 26 -20 69 -44 95 -54 26 -9 79 -30 117 -46 39 -16 135 -56 214 -89 116
-48 418 -198 481 -238 12 -8 12 -13 -4 -30 -17 -19 -17 -20 25 -46 l42 -27
-46 -29 c-26 -16 -50 -29 -53 -29 -11 0 -65 -42 -61 -47 3 -2 20 5 38 16 37
23 54 27 44 11 -10 -16 11 -12 25 5 7 9 15 13 18 10 5 -5 -32 -39 -63 -57 -20
-11 -20 -11 -1 11 24 27 7 27 -28 0 -14 -11 -30 -18 -36 -14 -5 3 -25 -5 -42
-19 -31 -23 -426 -214 -458 -221 -8 -2 -27 -6 -43 -10 -19 -5 -27 -3 -27 6 0
8 78 48 188 97 171 76 497 250 487 260 -2 3 -71 -31 -152 -75 -133 -72 -368
-186 -502 -243 -48 -21 -51 -21 -68 -5 -16 17 -16 17 6 10 23 -7 81 11 81 26
0 5 7 5 17 2 12 -5 14 -3 8 7 -5 8 -4 11 3 6 13 -8 63 14 56 25 -3 5 3 6 12 2
12 -4 15 -3 10 5 -5 8 -1 10 10 5 11 -4 15 -2 11 4 -8 12 20 26 33 18 12 -8
122 50 113 59 -4 4 1 4 11 0 13 -5 17 -4 12 4 -5 8 -1 10 10 5 12 -4 15 -3 10
5 -5 8 -1 10 10 5 12 -4 15 -3 10 5 -5 8 -1 10 10 5 11 -4 15 -3 10 5 -3 6 -1
14 5 18 8 4 9 3 5 -4 -10 -16 5 -15 26 2 10 7 14 17 10 21 -4 5 -2 5 5 2 15
-9 45 2 37 14 -3 5 -2 9 3 8 23 -4 43 2 40 13 -1 7 5 12 13 13 29 0 77 26 77
41 0 16 -6 17 -27 4 -12 -8 -12 -10 -1 -10 8 0 12 -2 9 -5 -10 -10 -38 7 -31
19 3 6 -2 4 -13 -5 -10 -9 -54 -33 -96 -55 -42 -21 -74 -43 -71 -48 3 -5 1 -6
-6 -2 -12 8 -331 -162 -367 -195 -26 -24 -39 -24 -80 2 -19 11 -39 17 -46 13
-7 -4 -10 -4 -6 1 12 13 -25 34 -42 25 -9 -5 -22 -4 -31 2 -11 8 -10 9 4 4 10
-3 16 -2 13 3 -3 5 -15 11 -26 14 -11 3 -18 1 -14 -4 3 -5 -2 -6 -10 -3 -9 3
-13 10 -10 15 3 5 -2 6 -10 3 -9 -3 -25 4 -39 18 -13 13 -29 22 -35 20 -6 -2
-22 8 -35 22 -30 32 -216 129 -234 121 -8 -2 -12 -1 -9 4 7 11 -133 74 -151
67 -15 -6 -103 32 -103 44 0 5 -20 18 -45 30 -25 12 -45 25 -45 30 0 4 -10 10
-22 14 -26 6 -161 104 -223 161 -34 31 -35 34 -10 19 33 -20 25 -9 -19 24 -15
12 -33 19 -39 15 -5 -3 -7 -1 -4 4 7 11 -20 36 -106 98 -52 39 -69 45 -43 16
9 -10 16 -22 15 -27 -4 -21 2 -25 19 -13 15 13 16 12 4 -3 -13 -16 -15 -16
-40 0 -15 9 -29 19 -32 22 -3 4 -41 34 -86 67 -44 34 -105 84 -136 112 -59 54
-103 66 -141 37 -16 -12 -16 -14 -1 -20 23 -9 31 -7 16 3 -10 6 -3 11 23 15
35 7 41 4 84 -37 79 -77 312 -267 416 -340 55 -39 152 -114 215 -167 63 -53
135 -110 160 -126 25 -16 53 -36 63 -45 16 -15 178 -97 357 -182 41 -20 129
-68 195 -108 66 -39 139 -79 163 -88 23 -8 42 -19 42 -23 0 -4 -18 -21 -40
-39 -22 -18 -37 -35 -35 -40 3 -4 0 -11 -6 -15 -8 -5 -9 -3 -4 6 5 8 3 11 -6
8 -8 -3 -13 -10 -12 -16 2 -6 -3 -9 -10 -7 -6 3 -23 -5 -37 -16 -14 -11 -19
-17 -11 -13 9 5 12 3 7 -5 -4 -6 -12 -9 -17 -6 -10 7 -52 -19 -44 -27 3 -2 -1
-5 -7 -5 -24 0 -324 -198 -426 -281 l-44 -35 -41 23 c-22 13 -79 49 -126 79
-167 110 -358 218 -367 208 -3 -3 4 -8 15 -12 12 -3 19 -11 16 -16 -4 -5 -19
-2 -36 6 -52 28 -31 7 29 -26 31 -18 71 -42 88 -55 31 -23 56 -37 189 -109 39
-20 84 -48 102 -61 30 -23 32 -23 28 -4 -3 17 -1 18 15 8 17 -11 17 -13 -13
-35 -39 -29 -42 -29 -87 7 l-37 29 -29 -30 c-24 -25 -26 -31 -14 -39 8 -5 18
-10 22 -10 3 0 21 -12 38 -26 29 -25 30 -27 14 -45 -19 -21 -39 -26 -27 -6 11
17 13 37 4 37 -5 0 -28 -17 -52 -38 -46 -39 -93 -72 -105 -72 -4 0 5 9 20 21
14 11 26 28 26 38 0 9 9 27 20 39 12 12 16 22 9 22 -6 0 -8 7 -5 16 6 15 4 15
-13 3 -10 -8 -72 -53 -138 -101 -107 -79 -135 -94 -308 -164 -104 -42 -198
-77 -207 -76 -10 0 -62 25 -115 55 -113 63 -237 127 -247 127 -4 0 -4 -5 0
-12 4 -7 3 -8 -5 -4 -6 4 -9 11 -6 16 7 11 -24 22 -37 13 -7 -4 -8 -1 -3 7 6
10 4 12 -9 7 -11 -5 -15 -3 -10 5 5 8 2 9 -10 5 -9 -4 -15 -3 -12 1 2 4 -26
23 -62 42 -37 19 -96 51 -132 72 -35 21 -69 40 -75 43 -6 3 -5 7 3 11 6 3 10
9 7 14 -2 4 4 15 15 25 19 17 19 19 2 31 -16 13 -16 14 2 7 12 -4 17 -2 13 3
-3 6 3 15 14 22 11 7 19 8 19 2 0 -5 5 -10 11 -10 5 0 7 5 4 10 -3 6 2 13 12
16 10 3 27 10 38 15 18 7 17 8 -5 5 -14 -2 -20 -1 -13 1 15 5 46 53 34 53 -10
0 -121 -65 -136 -81 -7 -7 -4 -8 10 -3 11 4 17 4 13 -1 -4 -4 -19 -9 -32 -9
-13 -1 -31 -7 -39 -14 -13 -11 -18 -9 -32 11 -17 26 -23 124 -11 167 7 24 7
24 -8 6 -9 -11 -16 -26 -16 -33 0 -16 -36 -54 -44 -46 -3 3 2 11 10 18 15 10
13 14 -11 33 -15 12 -32 19 -38 15 -6 -3 -7 -1 -3 5 3 6 -10 23 -29 38 -35 26
-36 26 -58 8 l-22 -19 18 21 c18 22 18 22 -20 50 -21 16 -47 37 -57 46 -10 10
-24 15 -29 11 -6 -3 -7 -1 -3 5 9 15 1 15 -25 2 -14 -8 -19 -8 -17 1 2 6 -3
14 -10 16 -6 3 -12 -3 -12 -12 0 -9 -4 -13 -10 -10 -6 4 -5 13 2 25 11 18 14
18 35 4 13 -8 23 -10 23 -4 0 6 12 8 26 6 28 -5 45 -16 25 -16 -7 0 -9 -5 -5
-12 5 -7 11 -5 21 8 12 16 15 17 23 4 8 -12 10 -10 10 8 0 13 4 20 10 17 6 -4
7 -11 4 -17 -4 -6 -2 -8 3 -5 6 4 17 -1 24 -10 12 -15 12 -16 -3 -10 -10 3
-20 1 -24 -5 -4 -7 -3 -8 4 -4 7 4 12 2 12 -5 0 -8 4 -8 16 1 12 11 18 10 32
-5 16 -17 16 -17 -1 -12 -11 4 -16 3 -12 -4 4 -5 15 -7 25 -4 10 3 21 2 24 -3
3 -6 -4 -12 -17 -16 -18 -5 -19 -8 -8 -15 10 -7 18 -5 26 6 16 21 38 8 26 -15
-12 -23 10 -43 32 -30 10 5 23 6 30 2 6 -4 4 2 -7 14 -10 12 -23 19 -28 16 -6
-4 -5 -10 3 -15 11 -7 10 -9 -4 -9 -12 0 -17 6 -15 18 1 9 -1 23 -5 30 -8 11
5 16 41 15 10 -1 10 2 1 13 -9 11 -15 11 -34 -2 -14 -9 -26 -11 -29 -5 -4 5 3
13 15 16 19 6 19 8 4 25 -16 18 -55 17 -55 -1 0 -5 -5 -9 -11 -9 -5 0 -7 5 -3
12 4 6 3 8 -3 5 -15 -9 -35 17 -27 37 3 9 10 13 15 10 23 -14 5 6 -26 30 l-35
27 -45 -25 -44 -25 -16 22 c-19 27 -19 37 0 37 8 0 15 -7 15 -15 0 -8 9 -15
19 -15 13 0 18 6 16 18 -1 9 3 23 9 31 11 15 11 15 -39 -5 -8 -3 -15 -1 -15 5
0 6 -7 11 -15 11 -22 0 -18 17 4 23 13 3 21 -1 23 -12 2 -9 6 -12 10 -5 4 5
-15 29 -43 53 -31 26 -49 37 -49 27 0 -8 -6 -17 -12 -20 -7 -3 -1 -4 15 -1 29
6 38 -9 11 -19 -26 -10 -44 11 -34 39 7 17 4 27 -9 39 -17 15 -19 15 -32 -4
-14 -20 -14 -20 -51 6 -38 27 -82 27 -71 -2 3 -7 9 -14 14 -14 4 0 6 7 3 15
-4 9 0 15 10 15 9 0 16 -4 16 -10 0 -5 7 -10 15 -10 9 0 18 -7 21 -15 4 -8 12
-15 18 -15 7 0 23 -11 36 -25 22 -23 22 -25 4 -26 -10 0 -13 -3 -6 -6 6 -2 9
-10 5 -16 -3 -7 3 -4 14 6 24 21 43 6 23 -17 -8 -11 -8 -15 2 -19 8 -4 7 -6
-4 -6 -10 -1 -18 -5 -18 -11 0 -5 7 -6 17 -3 9 4 14 2 10 -3 -3 -6 4 -11 16
-11 21 -2 21 -1 4 12 -18 13 -18 14 1 24 19 10 32 6 32 -11 0 -5 -4 -6 -10 -3
-5 3 -8 0 -5 -7 2 -7 -2 -21 -10 -32 -13 -17 -20 -13 -122 67 -136 107 -203
169 -203 189 0 19 18 35 45 40 11 1 22 5 25 8 6 6 49 27 182 89 60 27 108 55
108 60 0 6 -31 -4 -68 -23 -111 -56 -295 -143 -320 -150 -12 -4 -29 -19 -37
-34 -14 -24 -15 -24 -9 -4 5 21 4 23 -15 13 -19 -11 -20 -12 -3 -30 9 -10 20
-16 23 -14 4 1 10 -4 13 -13 3 -8 10 -13 15 -10 5 3 14 -1 21 -9 15 -18 36
-19 46 -4 4 8 0 9 -15 4 -15 -4 -23 -1 -27 10 -4 9 -13 14 -21 11 -9 -4 -13
-1 -10 6 6 18 44 11 80 -14 28 -20 30 -23 12 -26 -29 -6 -43 -22 -19 -22 11 0
25 5 30 10 7 7 18 2 34 -15 20 -21 21 -27 10 -38 -10 -9 -11 -9 -6 1 5 8 0 12
-13 12 -11 0 -23 5 -26 10 -3 6 -11 10 -17 10 -6 0 6 -17 26 -37 21 -21 41
-38 45 -38 13 0 60 -42 54 -49 -3 -3 -1 -6 5 -6 6 0 23 -11 38 -25 21 -19 30
-22 41 -14 7 7 16 9 20 5 3 -3 0 -6 -8 -6 -9 -1 -7 -7 8 -19 12 -10 20 -20 18
-22 -2 -3 30 -31 71 -64 146 -117 319 -263 338 -284 15 -16 17 -24 8 -33 -9
-9 -20 -5 -46 18 -19 16 -90 76 -158 134 -68 58 -179 148 -248 200 -68 52
-160 130 -204 173 -44 42 -83 77 -87 77 -4 0 -34 24 -66 53 -32 30 -65 56 -75
60 -10 3 -39 -8 -72 -28 -31 -19 -54 -30 -51 -24 4 5 1 9 -5 9 -6 0 -8 5 -5
11 4 5 12 8 18 6 7 -2 35 9 63 25 29 16 62 31 73 33 12 2 34 13 50 24 16 12
32 21 36 21 3 0 37 17 73 39 71 40 144 81 252 139 36 19 70 39 75 45 9 9 -222
-108 -310 -158 -116 -65 -211 -111 -222 -108 -7 3 41 32 107 66 65 34 116 65
114 69 -3 4 2 5 10 2 9 -4 18 1 22 10 3 9 10 13 15 10 5 -3 9 0 9 7 0 7 3 9 6
6 11 -10 145 64 137 76 -3 5 -1 7 5 4 13 -9 44 2 37 13 -3 4 2 11 11 14 9 3
12 2 8 -5 -3 -6 3 -5 15 3 12 7 21 16 21 21 0 4 5 5 12 1 7 -4 8 -3 4 4 -6 11
5 16 26 13 3 0 111 56 240 126 128 69 285 154 348 188 63 34 169 90 234 126
l120 64 -45 3 c-38 2 -60 -6 -159 -59 -63 -33 -218 -115 -345 -181 -126 -66
-333 -175 -460 -243 -461 -246 -537 -285 -546 -279 -5 3 -13 13 -19 24 -8 15
-6 17 8 14 9 -2 40 10 67 26 28 16 66 37 85 47 19 10 38 22 41 26 3 5 9 8 13
8 18 -3 29 0 23 5 -7 7 153 89 166 85 5 -1 6 3 2 9 -3 5 -1 11 4 11 20 3 26 5
49 18 13 7 22 15 19 17 -4 4 -46 -17 -300 -151 -53 -28 -94 -55 -90 -60 5 -4
2 -5 -5 -1 -7 4 -18 4 -25 -2 -19 -15 -47 -22 -47 -12 0 5 9 11 20 15 10 3 59
28 107 54 48 27 330 178 625 336 296 159 536 290 534 292 -2 3 -36 -12 -75
-31 -39 -20 -71 -33 -71 -29 0 4 12 20 27 35 l27 28 -822 0 c-452 0 -822 -3
-822 -6z m5316 -986 c15 -29 11 -73 -6 -63 -5 3 -12 0 -16 -6 -5 -8 -3 -9 6
-4 8 5 11 3 8 -5 -5 -15 -165 -118 -1023 -655 -341 -214 -765 -479 -942 -590
-176 -111 -326 -199 -332 -196 -5 4 15 22 44 41 30 19 54 41 52 49 -1 8 4 16
12 19 8 3 11 0 7 -6 -6 -11 132 62 147 77 5 5 3 12 -4 16 -8 6 -10 4 -4 -6 5
-8 5 -11 0 -7 -4 4 -14 3 -22 -4 -7 -6 -16 -9 -19 -6 -7 8 58 48 68 42 5 -3 5
-10 2 -16 -4 -7 -2 -8 5 -4 9 6 9 11 1 21 -8 10 2 20 42 46 28 18 56 34 62 35
6 1 20 5 31 9 20 7 20 7 0 -9 -11 -9 -25 -14 -33 -11 -7 2 -11 1 -8 -4 3 -5
-12 -20 -34 -35 -22 -14 -40 -29 -40 -32 0 -6 3 -4 85 49 33 21 59 43 58 47
-2 5 3 7 10 5 6 -3 24 3 39 13 l28 18 -36 17 c-19 10 -40 14 -46 11 -6 -4 -8
-2 -5 3 10 15 -72 47 -87 34 -6 -5 -34 -19 -61 -30 -32 -14 -43 -16 -31 -6 11
8 25 15 31 15 7 0 12 7 12 15 0 10 -6 14 -16 10 -22 -8 18 28 48 45 19 10 22
10 16 -1 -6 -9 -3 -10 11 -5 41 17 57 18 93 6 35 -11 43 -10 107 18 38 17 70
35 70 41 1 6 2 15 3 21 0 5 11 14 22 21 15 8 19 8 15 0 -13 -21 6 -11 70 34
34 25 66 45 69 45 4 0 20 10 35 23 42 33 111 72 122 69 5 -1 7 1 4 6 -8 13 40
33 60 25 11 -4 5 -12 -25 -30 -23 -13 -46 -21 -51 -18 -6 4 -9 3 -8 -2 2 -4
-1 -8 -5 -8 -5 0 -13 -8 -18 -17 -6 -10 -17 -18 -24 -18 -8 0 -15 -4 -15 -8 0
-7 -59 -40 -78 -43 -24 -3 -43 -22 -34 -31 8 -8 32 4 81 37 39 27 73 46 76 43
3 -3 -24 -25 -60 -48 -47 -31 -62 -46 -53 -52 8 -5 20 0 33 15 19 22 68 57 80
57 3 0 4 -5 2 -12 -3 -17 -96 -80 -107 -73 -17 10 -34 -6 -19 -17 10 -7 9 -8
-5 -4 -10 4 -25 1 -32 -5 -16 -13 -18 -29 -5 -29 19 0 195 120 197 134 1 9 -4
13 -14 9 -13 -3 -13 -1 2 11 21 17 41 22 32 8 -2 -4 4 -8 15 -8 10 0 19 4 19
9 0 4 5 5 10 2 6 -4 9 -1 8 6 -2 6 3 14 11 17 9 3 11 0 6 -8 -5 -9 -4 -11 4
-6 6 4 9 12 6 17 -4 5 -1 10 4 10 6 1 16 3 21 4 6 1 15 3 22 4 7 0 4 7 -6 14
-18 13 -18 14 -2 20 22 9 39 -1 30 -15 -4 -7 -2 -8 5 -4 6 4 9 11 6 16 -6 10
24 24 45 21 8 -2 12 0 8 5 -11 10 30 37 44 28 6 -4 8 -3 5 3 -7 11 20 28 36
24 5 -1 6 3 2 8 -3 6 -13 7 -22 4 -12 -5 -14 -3 -8 8 5 8 5 11 -1 6 -5 -5 -9
-14 -9 -19 0 -6 -6 -13 -14 -16 -8 -3 -11 0 -7 7 11 17 -1 13 -45 -15 -23 -14
-43 -23 -46 -20 -3 3 10 14 28 25 19 12 34 26 34 33 0 6 6 13 14 16 9 3 11 0
6 -8 -11 -17 73 30 88 50 9 12 9 13 -3 3 -8 -7 -21 -13 -30 -13 -9 0 -3 8 15
20 34 23 49 26 39 8 -4 -7 -3 -9 1 -5 11 9 16 37 7 37 -18 -1 -147 -97 -145
-108 3 -11 -1 -13 -37 -16 -8 -1 -14 -8 -12 -15 2 -9 -3 -11 -13 -7 -9 3 -13
2 -10 -4 7 -12 -32 -33 -47 -24 -7 4 -8 3 -4 -4 8 -14 -3 -15 -22 -3 -9 6 5
19 50 48 35 21 66 39 70 39 14 -2 47 53 43 72 -2 12 1 25 7 28 7 4 8 2 4 -4
-4 -7 -3 -12 3 -12 6 0 8 -8 5 -17 -4 -11 -2 -14 3 -8 4 6 27 19 51 30 24 10
45 23 49 27 3 5 -13 0 -36 -11 -48 -25 -69 -28 -52 -8 6 8 7 18 3 22 -4 5 -2
5 5 1 7 -4 30 5 52 20 42 27 73 25 49 -4 -10 -12 -6 -12 22 4 19 10 42 24 50
29 25 18 72 36 65 25 -6 -10 41 -33 53 -26 4 2 14 -3 22 -12 13 -14 12 -15 -3
-9 -9 3 -16 2 -14 -3 1 -5 -7 -16 -18 -25 -34 -28 4 -5 195 118 102 66 236
151 298 189 61 38 112 75 112 82 0 7 29 23 64 35 50 18 63 26 59 39 -4 10 -2
13 5 8 8 -5 12 0 13 13 2 30 3 34 13 50 6 10 5 12 -2 7 -7 -4 -12 -1 -12 9 0
8 -12 21 -27 27 -37 16 -36 15 -29 27 10 16 74 -27 92 -61z m74 -32 c0 -30
-33 -71 -82 -102 -22 -14 -38 -28 -35 -30 6 -7 69 25 80 40 11 15 2 -29 -15
-77 -19 -49 -139 -151 -170 -144 -7 2 -9 2 -5 -1 5 -2 -1 -11 -12 -19 -12 -8
-26 -11 -31 -8 -6 4 -9 2 -8 -3 4 -15 -71 -64 -85 -56 -7 4 -9 4 -5 -1 10 -11
-29 -38 -42 -30 -5 3 -18 1 -27 -5 -16 -9 -15 -10 5 -5 32 9 27 0 -14 -24 -44
-26 -53 -27 -23 -1 13 10 19 19 12 20 -6 0 -15 -4 -18 -10 -3 -5 -12 -10 -18
-10 -7 0 22 22 63 50 41 27 82 48 90 45 9 -3 25 2 36 11 18 14 18 15 -4 4 -48
-24 -30 -1 31 39 66 43 84 50 71 29 -5 -7 14 8 41 35 47 45 48 48 31 65 -16
16 -18 16 -38 -8 -21 -24 -21 -24 -15 -2 6 27 -1 27 -33 2 -15 -13 -18 -18 -7
-14 38 14 5 -23 -46 -49 -60 -32 -90 -50 -97 -58 -14 -16 -87 -59 -100 -59 -8
0 32 31 90 68 57 37 108 66 111 65 4 -1 10 4 13 13 4 10 2 13 -7 7 -6 -4 -140
-88 -297 -186 -157 -99 -329 -207 -382 -241 -72 -44 -93 -62 -81 -67 15 -5 15
-7 -5 -18 -12 -7 -20 -16 -17 -20 2 -5 -3 -8 -12 -7 -10 0 -18 -4 -18 -11 0
-6 -4 -15 -9 -20 -5 -5 -6 -3 -2 5 4 6 5 12 2 12 -3 0 -61 -37 -130 -81 -102
-66 -129 -79 -140 -70 -12 10 -23 7 -55 -15 -22 -14 -38 -30 -36 -35 3 -4 0
-11 -6 -15 -8 -4 -9 -3 -5 4 9 15 1 15 -25 1 -11 -5 -17 -14 -14 -18 2 -5 -3
-15 -13 -22 -15 -13 -16 -12 -3 4 7 9 11 17 7 17 -20 0 -775 -484 -769 -493 4
-6 0 -8 -11 -4 -9 4 -27 0 -40 -8 -12 -8 -25 -12 -29 -9 -3 4 -23 -3 -43 -15
-20 -12 -38 -20 -40 -18 -7 7 51 44 76 49 14 2 185 105 380 228 456 287 704
442 1075 675 492 308 768 484 775 495 3 4 23 17 46 28 52 27 69 47 66 84 -2
18 2 27 8 23 5 -3 10 -17 10 -29z m-4631 -205 c144 -100 266 -179 272 -176 5
4 8 1 7 -6 -2 -6 3 -14 11 -17 9 -3 11 0 6 9 -5 8 -4 11 1 6 5 -5 9 -14 9 -20
0 -7 8 -11 18 -11 9 1 14 -2 12 -7 -7 -11 39 -41 56 -37 7 2 13 -3 14 -11 0
-8 6 -16 14 -19 9 -3 11 0 6 8 -5 9 -4 11 4 6 6 -4 9 -12 5 -17 -3 -6 0 -9 7
-7 16 3 93 -41 85 -49 -2 -3 -21 7 -40 22 -20 15 -36 25 -36 22 0 -7 96 -77
105 -77 4 0 1 7 -6 16 -7 9 40 -20 106 -66 66 -45 119 -85 118 -90 -2 -5 12
-19 30 -30 l32 -22 -30 26 c-36 31 -25 34 16 5 16 -11 27 -24 24 -29 -3 -5 0
-12 6 -16 8 -5 9 -3 4 6 -5 8 -3 11 6 8 8 -3 14 -10 14 -15 0 -6 4 -15 9 -20
5 -5 6 -2 1 6 -5 9 -3 12 6 9 8 -3 13 -10 12 -16 -1 -5 5 -16 15 -24 15 -12
16 -11 3 5 -7 9 -10 17 -7 17 16 0 126 -82 121 -89 -2 -5 3 -8 13 -7 9 0 16
-4 15 -11 -2 -7 3 -10 10 -8 6 3 50 -23 97 -57 77 -55 196 -138 580 -400 69
-47 125 -91 125 -97 0 -14 44 -50 61 -51 14 0 39 -29 31 -36 -3 -3 -29 7 -59
23 -68 36 -81 40 -40 13 17 -12 32 -26 32 -31 0 -5 3 -8 8 -7 11 4 72 -26 72
-35 0 -12 -51 4 -84 27 -67 46 -106 79 -101 86 7 12 -10 21 -27 15 -10 -4 -14
-21 -13 -53 1 -46 21 -99 32 -88 3 3 24 -8 46 -24 47 -34 67 -38 67 -12 0 30
10 32 48 12 21 -11 48 -21 60 -23 l24 -4 -2 -174 c-2 -96 -3 -247 -4 -336 -1
-89 -5 -165 -8 -169 -4 -3 -2 -17 3 -31 l9 -25 -47 7 c-27 3 -63 15 -81 26
-42 24 -42 24 -42 -11 0 -26 -3 -29 -17 -21 -17 8 -178 125 -213 154 -9 6 -34
25 -58 41 -23 16 -42 33 -42 37 0 5 -4 8 -10 7 -5 -2 -28 15 -51 37 -24 22
-39 33 -35 25 4 -8 -4 -2 -18 13 -14 15 -26 25 -26 21 0 -4 -11 5 -25 20 -14
15 -30 24 -37 20 -6 -4 -8 -3 -5 3 6 10 -169 140 -184 135 -5 -1 -9 2 -9 8 0
5 -5 10 -10 10 -6 0 -18 6 -26 13 -8 6 -20 17 -27 22 -7 6 -26 21 -42 35 -15
14 -25 18 -20 10 5 -8 -3 -5 -17 8 -13 12 -29 22 -36 22 -6 0 -14 5 -18 12 -5
7 -3 8 6 3 9 -5 11 -4 6 4 -4 6 -12 9 -17 6 -5 -4 -26 7 -46 23 -38 29 -187
137 -623 450 -436 313 -535 388 -548 415 -36 74 -4 56 332 -185 186 -134 355
-255 375 -269 20 -14 198 -142 396 -284 198 -142 509 -365 690 -494 182 -130
332 -239 333 -243 2 -5 8 -8 13 -8 6 0 8 4 5 9 -3 5 -137 102 -296 216 -160
114 -289 210 -286 212 3 3 19 -5 35 -17 17 -12 31 -19 31 -16 0 3 -21 20 -48
37 -26 18 -41 25 -33 16 7 -9 10 -17 5 -17 -7 0 -439 306 -594 421 -19 14 -84
61 -145 104 -60 44 -198 142 -305 220 -107 77 -205 147 -217 155 -56 39 -269
193 -277 201 -9 8 -10 24 -20 178 -3 46 -9 87 -12 90 -4 3 -3 -54 0 -127 7
-132 7 -133 -13 -122 -45 23 -49 44 -65 330 -9 151 -19 309 -22 350 -7 75 -7
75 14 57 11 -10 23 -33 26 -52 4 -18 13 -38 21 -45 8 -7 16 -27 16 -44 l1 -31
7 28 6 29 24 -26 c14 -14 33 -26 43 -26 15 0 18 8 18 45 0 39 -5 50 -34 76
-30 25 -34 36 -27 68 2 9 46 -20 290 -188z m3859 154 c-21 -22 -207 -141 -263
-169 -38 -20 -90 -54 -113 -76 -49 -44 -126 -90 -152 -90 -35 0 -28 14 19 41
27 16 53 34 57 40 5 8 3 9 -7 4 -8 -5 -11 -5 -8 -2 3 4 50 29 105 55 54 27
131 69 169 92 147 92 179 110 189 110 5 0 7 -2 4 -5z m645 -297 c-4 -7 -8 -24
-9 -38 -1 -14 -2 -33 -3 -42 -1 -21 -228 -169 -257 -168 -5 0 -1 5 9 11 9 6
15 14 12 19 -3 5 0 12 6 16 8 5 9 3 4 -6 -5 -8 -3 -11 6 -8 8 3 13 13 11 22
-3 14 2 17 20 12 13 -3 17 -3 10 0 -8 4 25 31 85 70 54 35 93 64 88 64 -6 0
-42 -20 -79 -45 -38 -25 -71 -45 -73 -45 -2 0 -24 -13 -48 -30 -24 -16 -47
-30 -50 -30 -4 0 -20 -9 -36 -21 -16 -11 -29 -17 -29 -12 0 4 9 14 20 21 12 7
18 17 15 22 -7 12 26 29 44 22 9 -3 11 0 6 8 -6 10 -4 12 9 7 9 -4 15 -3 12 2
-8 13 21 34 35 25 7 -4 9 -3 5 4 -8 13 30 36 44 27 6 -4 9 -2 8 3 -2 6 29 31
67 56 77 50 80 51 68 34z m-862 -600 c22 -12 39 -25 39 -30 0 -16 -32 -21 -52
-9 -25 16 -39 4 -15 -14 16 -11 16 -14 1 -26 -12 -10 -22 -10 -45 -2 -35 13
-35 12 -8 -19 l22 -24 25 23 c13 12 28 20 33 17 5 -3 9 0 9 7 0 7 3 9 7 6 3
-4 18 0 32 9 l26 15 -22 -20 c-13 -10 -23 -25 -23 -31 0 -7 -7 -10 -15 -6 -12
4 -13 2 -6 -12 8 -14 5 -18 -11 -19 -13 -1 -18 3 -14 13 3 8 1 14 -4 14 -6 0
-10 -8 -10 -17 0 -32 -86 -17 -108 18 -12 18 -11 19 6 10 10 -5 24 -17 31 -25
8 -9 17 -13 22 -11 11 7 -31 55 -48 55 -24 0 -14 18 22 40 19 12 40 30 45 41
13 24 14 24 61 -3z m-3677 -408 c21 -26 186 -295 224 -366 11 -21 10 -21 -36
-12 -74 15 -259 12 -333 -5 -102 -24 -210 -78 -268 -134 l-51 -49 -34 60 c-25
44 -31 64 -24 73 16 20 0 62 -30 81 -19 12 -26 24 -24 40 2 15 -7 32 -27 51
-18 17 -26 31 -19 33 7 3 2 13 -12 26 -14 13 -30 20 -37 18 -8 -3 -13 2 -13
14 0 13 9 22 27 26 16 3 39 9 53 14 32 10 89 26 324 95 104 30 191 57 194 60
16 16 62 3 86 -25z m306 -533 c0 -8 4 -7 10 3 8 13 10 12 10 -3 0 -10 6 -20
14 -23 8 -3 12 -12 10 -19 -3 -7 -1 -16 5 -20 15 -9 13 -46 -4 -69 -7 -10 -18
-15 -24 -11 -6 3 -11 1 -11 -4 0 -6 -5 -11 -11 -11 -5 0 -7 6 -3 13 4 6 -2 4
-14 -7 -18 -16 -24 -17 -37 -6 -9 7 -18 10 -22 6 -3 -3 -1 -6 5 -6 7 0 12 -8
11 -17 0 -11 -3 -13 -6 -5 -2 6 -9 10 -14 6 -5 -3 -9 0 -9 5 0 6 -10 11 -22
12 -18 0 -15 3 12 13 29 10 38 10 53 -3 16 -13 17 -12 15 10 -2 13 2 24 10 24
6 0 12 3 12 8 0 4 -3 7 -6 6 -3 0 -12 8 -20 18 -10 13 -16 15 -21 6 -15 -22
-67 -20 -86 5 -10 12 -25 22 -32 22 -8 0 -17 5 -21 11 -5 8 1 10 19 7 16 -3
24 -1 21 6 -2 6 20 23 49 37 47 24 54 25 80 12 15 -7 27 -19 27 -26z"/>
<path d="M517 3173 c11 -10 53 -39 91 -66 54 -36 70 -52 67 -67 -2 -11 0 -22
5 -25 5 -3 7 4 5 15 -2 11 -1 20 2 20 2 0 127 -85 276 -188 377 -260 1152
-794 1180 -811 12 -8 18 -10 12 -4 -11 12 -145 105 -1016 708 -562 389 -688
473 -622 418z"/>
<path d="M447 1736 c-52 -19 -77 -44 -77 -77 0 -102 219 -106 254 -6 13 36
-20 71 -79 86 -53 13 -51 13 -98 -3z"/>
<path d="M1753 4027 c-155 -84 -360 -192 -455 -242 -95 -49 -222 -116 -283
-148 -60 -32 -145 -77 -188 -99 -43 -22 -76 -43 -73 -45 6 -6 327 156 472 238
67 38 126 69 131 69 14 0 78 -60 75 -71 -1 -5 1 -8 5 -7 5 2 54 -33 111 -77
251 -195 380 -297 499 -395 71 -58 130 -105 133 -106 15 -2 80 -39 80 -45 0
-11 158 -100 262 -148 76 -35 201 -102 278 -149 14 -9 21 -11 15 -5 -5 6 -80
56 -165 111 -85 56 -166 110 -180 121 -61 49 -94 70 -104 64 -6 -3 -8 -3 -4 1
4 5 -5 18 -19 30 -25 22 -25 23 -9 48 9 15 13 29 8 32 -14 8 -21 -4 -14 -22 5
-15 4 -16 -13 -2 -17 13 -18 13 -13 0 13 -35 -43 -11 -118 51 -44 36 -104 83
-134 104 -30 21 -86 64 -125 95 -38 31 -142 105 -230 165 -164 113 -272 205
-261 224 4 5 14 7 22 4 11 -4 14 -1 12 11 -2 13 14 23 70 42 79 26 160 66 290
144 80 48 233 161 216 159 -5 0 -136 -69 -291 -152z"/>
<path d="M3850 3835 c-7 -8 -19 -15 -27 -15 -34 0 -112 -35 -116 -52 -3 -10
-14 -18 -25 -18 -32 0 -152 -40 -152 -50 0 -6 -6 -10 -14 -10 -8 0 -13 -7 -12
-16 1 -12 -10 -17 -43 -20 -25 -2 -47 -7 -50 -11 -3 -3 26 -3 66 1 81 7 134
23 115 35 -9 5 -8 12 4 29 19 27 44 29 44 2 0 -12 -7 -20 -17 -20 -9 0 -14 -2
-11 -5 9 -9 58 6 52 16 -3 5 2 9 10 9 9 0 16 4 16 9 0 5 19 16 43 23 30 11 43
21 45 36 3 18 10 22 40 21 20 0 31 -3 25 -6 -7 -2 -13 -9 -13 -15 0 -7 4 -7
13 -1 6 6 21 10 31 10 17 0 17 -2 -4 -19 -25 -20 -19 -24 11 -8 10 6 19 17 19
25 0 8 5 15 10 15 6 0 10 5 10 11 0 6 -7 8 -15 5 -8 -3 -22 -9 -32 -13 -11 -4
-14 -3 -9 5 4 7 2 12 -5 12 -8 0 -8 4 1 15 7 8 10 15 7 15 -2 0 -10 -7 -17
-15z"/>
<path d="M1310 3723 c-13 -9 -41 -26 -64 -38 -94 -49 -126 -69 -126 -77 0 -9
21 0 80 36 22 14 48 21 72 19 23 -1 43 4 53 13 17 17 35 11 35 -13 0 -10 6
-13 16 -9 11 4 15 2 11 -8 -4 -10 -1 -13 9 -9 7 3 14 0 14 -6 0 -19 -28 -12
-53 13 -13 13 -29 21 -35 17 -7 -4 7 -21 38 -44 44 -33 50 -35 50 -18 0 33 13
31 62 -7 36 -27 45 -39 36 -49 -16 -20 -31 -16 -25 7 3 12 1 20 -6 19 -7 -1
-19 -1 -27 0 -12 1 -12 3 -2 10 11 7 11 9 -2 14 -8 3 -19 1 -22 -5 -7 -11 71
-88 89 -88 9 0 41 34 44 47 2 10 -58 63 -71 63 -3 0 -17 11 -31 26 -14 14 -30
22 -35 19 -6 -4 -9 -3 -8 2 2 8 -32 47 -63 70 -12 10 -20 9 -39 -4z"/>
<path d="M1812 3622 l-22 -17 22 -14 c20 -12 21 -12 12 0 -9 11 -9 17 0 25 10
9 21 6 45 -13 31 -25 32 -26 14 -46 -18 -19 -17 -20 4 -9 12 7 23 16 25 20 1
5 24 -8 50 -28 33 -27 44 -41 37 -51 -7 -11 -9 -11 -9 4 0 9 -7 17 -16 17 -8
0 -12 -5 -8 -11 4 -8 -1 -9 -17 -4 -13 4 8 -17 47 -46 113 -87 134 -100 144
-94 6 4 9 2 8 -3 -4 -11 143 -123 153 -116 5 2 6 11 3 19 -4 9 2 18 17 23 l23
9 -22 12 c-19 10 -22 9 -22 -9 0 -11 -5 -20 -11 -20 -5 0 -7 -5 -4 -11 4 -6
-3 -5 -14 3 -18 11 -19 14 -6 16 14 3 14 5 -2 17 -10 7 -20 9 -23 5 -3 -5 -12
-5 -20 0 -18 11 -13 16 23 25 21 6 27 4 27 -9 0 -9 5 -16 10 -16 16 0 12 15
-9 34 -11 10 -24 15 -29 12 -6 -3 -12 1 -15 9 -3 7 -20 21 -37 30 -30 15 -33
15 -47 -2 -8 -10 -12 -12 -8 -5 4 7 -1 12 -11 12 -17 0 -17 1 0 13 17 12 14
16 -33 51 -29 20 -56 34 -61 31 -6 -4 -10 0 -10 8 0 13 -87 84 -160 130 -23
15 -27 15 -48 -1z"/>
<path d="M2841 3601 c-8 -5 -9 -11 -3 -15 12 -7 3 -56 -12 -57 -6 0 -21 -2
-33 -5 -12 -2 -25 1 -28 6 -3 5 0 7 8 4 8 -3 18 -1 22 5 3 6 -1 11 -9 11 -9 0
-16 6 -16 13 0 19 -61 19 -82 0 -11 -9 -25 -18 -32 -19 -43 -6 -86 -38 -98
-72 -6 -21 -11 -41 -10 -45 1 -5 -2 -6 -7 -3 -12 8 -116 -92 -106 -102 3 -4
12 0 18 9 7 9 18 14 25 11 8 -2 33 10 56 27 24 16 46 27 50 24 3 -3 6 1 6 10
0 9 -5 17 -10 17 -6 0 -5 8 2 19 8 14 17 17 28 11 9 -5 22 -3 34 6 24 17 41 7
24 -13 -11 -14 -8 -14 20 1 36 19 43 31 11 21 -18 -6 -19 -5 -10 13 9 17 18
20 45 15 24 -4 48 1 79 16 50 24 62 43 47 72 -13 24 -2 25 17 2 13 -16 13 -16
3 5 -12 24 -18 26 -39 13z"/>
<path d="M1565 3533 c-3 -10 -3 -19 2 -20 39 -14 40 -43 0 -43 -20 0 -20 0 -1
15 16 13 16 14 2 9 -11 -4 -18 -1 -18 7 0 10 -3 10 -12 1 -9 -9 -7 -16 7 -32
10 -11 22 -20 26 -20 4 0 31 -22 60 -50 47 -45 69 -54 69 -30 0 5 -8 7 -17 3
-16 -6 -16 -4 1 15 16 19 20 19 33 6 14 -13 14 -17 -1 -33 -15 -16 -15 -19 2
-34 23 -21 36 -22 29 -3 -3 8 -1 17 6 20 7 3 2 3 -10 0 -18 -4 -22 -2 -17 10
7 19 14 19 36 2 14 -10 15 -15 5 -26 -10 -10 -8 -12 6 -6 10 3 21 6 23 6 3 0
2 5 -1 10 -3 6 -2 10 3 10 5 0 8 -15 8 -34 -1 -31 -3 -33 -17 -20 -18 16 -39
19 -39 4 0 -5 7 -10 15 -10 8 0 15 -4 15 -10 0 -5 7 -10 16 -10 8 0 13 -4 9
-9 -3 -5 -1 -12 4 -15 5 -4 11 4 13 16 2 12 9 24 17 26 10 3 12 0 7 -13 -4
-13 -2 -16 9 -12 18 7 30 -9 13 -17 -7 -3 -3 -3 10 0 25 6 28 0 10 -20 -10
-10 -15 -9 -29 8 -10 12 -21 18 -25 13 -8 -7 33 -57 48 -57 4 0 8 6 8 14 0 20
23 26 43 11 14 -10 15 -14 4 -23 -10 -9 -17 -8 -25 0 -7 7 -12 8 -12 4 0 -5
16 -24 35 -43 28 -27 35 -42 35 -71 0 -20 -4 -32 -8 -26 -25 37 -110 48 -144
18 -21 -19 -21 -19 -14 0 6 18 5 19 -11 4 -10 -8 -35 -21 -56 -28 -28 -9 -43
-22 -57 -50 -22 -44 -74 -85 -92 -74 -7 4 -10 4 -6 -1 4 -4 -8 -25 -27 -47
-26 -28 -35 -47 -34 -71 1 -21 3 -25 6 -12 7 28 20 42 56 60 31 15 72 12 62
-6 -14 -21 31 -6 76 26 50 35 65 43 54 26 -3 -5 0 -13 6 -17 8 -5 9 -3 4 6 -6
10 -4 12 11 6 10 -4 15 -4 11 0 -4 4 1 13 11 21 15 13 15 13 -5 3 -37 -18 -26
-4 23 29 25 17 51 28 57 25 8 -5 9 -4 2 4 -5 5 -19 12 -30 15 -13 3 -8 5 13 6
33 1 125 42 137 61 4 6 10 8 15 5 17 -11 17 22 -1 44 -11 13 -19 20 -19 17 0
-4 -9 -2 -19 4 -12 6 -17 17 -14 29 4 16 8 17 18 8 7 -7 11 -15 8 -20 -6 -11
21 -4 29 7 11 16 -93 101 -107 88 -5 -4 -5 -2 -1 5 7 13 -47 56 -58 46 -3 -3
-6 0 -6 8 -1 19 -87 85 -106 81 -10 -2 -13 1 -9 8 7 11 -25 42 -126 122 -41
33 -48 36 -54 21z"/>
<path d="M2925 3469 c-71 -33 -152 -69 -180 -80 -123 -49 -342 -166 -378 -202
-21 -21 -37 -41 -34 -43 4 -5 38 12 79 40 15 10 33 14 39 10 7 -4 9 -3 6 3 -3
5 24 27 61 49 87 50 80 49 102 29 18 -16 74 -24 87 -12 3 4 -3 7 -13 7 -21 0
-44 18 -44 34 0 5 9 1 19 -8 11 -10 26 -16 33 -13 9 3 7 7 -7 13 -49 20 -47
32 11 58 31 14 62 26 68 26 7 0 16 4 21 8 6 5 34 19 63 31 51 21 55 22 73 5
17 -16 19 -16 19 -1 0 10 4 17 9 17 5 0 8 7 7 15 0 9 23 27 59 44 113 55 30
30 -100 -30z"/>
<path d="M3077 3345 c-25 -31 -58 -51 -42 -25 9 14 5 13 -43 -10 -24 -12 -46
-19 -50 -16 -5 3 -14 0 -22 -6 -12 -8 -12 -9 3 -4 12 4 17 0 17 -13 0 -23 -30
-37 -42 -19 -5 9 -10 10 -15 2 -9 -12 -44 -28 -56 -25 -19 4 -75 -32 -80 -51
-3 -11 -10 -17 -16 -13 -14 8 -14 -8 -1 -21 11 -11 -27 -18 -107 -19 -37 0
-47 -3 -35 -9 9 -5 57 -9 107 -9 69 0 101 5 136 22 25 11 68 23 95 26 27 4 55
12 63 18 8 7 22 11 32 9 24 -4 61 16 53 29 -4 6 -12 4 -23 -5 -19 -18 -46 -22
-36 -6 3 6 2 10 -4 10 -18 0 -41 -12 -41 -22 0 -5 6 -6 13 -2 6 4 9 4 5 -1 -4
-4 -24 -9 -44 -11 l-36 -3 23 20 c13 12 36 27 52 35 18 10 27 22 27 39 0 30 9
35 40 22 l25 -11 -26 -3 c-22 -3 -25 -8 -21 -29 6 -31 22 -31 46 0 10 14 24
22 32 19 11 -4 12 -9 3 -19 -6 -8 -15 -12 -19 -9 -5 3 -11 1 -14 -4 -4 -5 -2
-12 4 -16 13 -8 62 44 53 58 -3 6 -1 7 5 3 12 -7 38 42 27 52 -3 3 -5 -1 -5
-8 0 -7 -3 -10 -7 -7 -3 4 -16 -1 -27 -12 -14 -13 -27 -16 -41 -11 -18 7 -16
9 15 23 24 11 28 15 13 13 -12 -1 -26 -5 -29 -9 -4 -4 -12 -7 -18 -7 -6 0 -1
7 11 15 15 11 39 55 30 55 -1 0 -15 -16 -30 -35z"/>
<path d="M2154 3064 c-135 -84 -214 -125 -224 -119 -6 4 -9 1 -8 -7 2 -7 -5
-12 -14 -12 -10 1 -16 -2 -13 -6 6 -10 -47 -50 -102 -78 -23 -12 -72 -44 -110
-71 -37 -28 -87 -64 -111 -81 -23 -17 -40 -35 -37 -41 4 -5 14 0 23 11 16 20
18 20 59 4 23 -9 40 -20 38 -25 -3 -4 0 -11 6 -15 7 -4 9 -3 6 3 -4 7 26 9 89
7 66 -2 110 2 143 13 25 8 75 19 111 24 116 15 149 25 195 64 58 47 76 74 68
104 -4 17 -8 19 -14 9 -7 -10 -9 -10 -9 0 0 6 -7 12 -15 12 -8 0 -15 2 -15 5
0 9 24 49 45 74 l20 24 -22 -14 c-12 -7 -26 -24 -32 -37 -6 -13 -15 -21 -20
-18 -5 3 -8 -2 -7 -11 0 -9 -5 -18 -13 -21 -9 -3 -11 0 -6 9 5 8 -2 5 -15 -6
-14 -12 -20 -14 -15 -5 6 11 3 10 -12 -2 -11 -10 -25 -18 -32 -18 -6 0 -24 -8
-38 -17 l-26 -18 19 30 19 30 -32 -25 c-30 -23 -47 -50 -22 -34 7 4 9 -1 7
-12 -3 -13 -11 -18 -27 -16 -13 1 -31 -3 -39 -10 -13 -11 -14 -11 -8 1 5 8 5
12 0 9 -14 -6 -65 -29 -111 -50 -24 -11 -43 -24 -43 -29 0 -5 -8 -9 -18 -9
-10 0 -25 -9 -35 -20 -9 -11 -29 -20 -44 -20 -26 0 -113 34 -113 43 0 2 26 22
58 43 45 30 68 39 107 41 28 1 59 3 70 3 17 1 16 3 -7 16 -16 8 -28 18 -28 22
0 11 98 72 115 72 9 0 14 4 11 9 -6 9 73 61 93 61 6 0 8 -6 5 -13 -3 -8 2 -14
11 -14 8 0 15 4 15 9 0 5 5 6 10 3 6 -4 7 -11 4 -17 -4 -7 -2 -8 4 -4 7 4 12
14 12 22 0 8 5 14 11 14 6 0 9 12 7 26 -3 23 4 30 47 53 27 14 52 29 55 32 3
3 14 11 25 17 15 9 16 11 4 12 -8 0 -42 -16 -75 -36z"/>
<path d="M2550 3069 c68 -38 179 -89 188 -87 4 1 24 -4 45 -11 29 -10 42 -10
50 -2 15 15 22 14 54 -12 15 -12 46 -29 68 -36 53 -18 115 -60 115 -77 0 -8
-4 -14 -10 -14 -5 0 -10 -6 -10 -12 1 -7 9 -3 19 9 l18 21 53 -30 c29 -16 50
-26 47 -21 -11 18 -235 143 -256 143 -11 0 -21 4 -21 10 0 9 -81 53 -148 80
-29 11 -35 10 -55 -6 l-22 -19 18 21 c17 21 17 22 0 30 -10 4 -40 9 -68 9 -27
1 -67 9 -87 19 -59 26 -58 18 2 -15z"/>
<path d="M5700 2929 c-52 -39 -112 -85 -132 -103 -20 -17 -61 -50 -92 -74 -38
-30 -53 -48 -49 -60 4 -13 3 -14 -5 -4 -12 18 -46 -2 -61 -35 -17 -38 11 -29
71 23 38 32 60 44 76 41 18 -3 20 -2 11 9 -9 11 -7 15 5 20 9 3 22 4 29 1 8
-3 12 6 11 29 -2 31 1 34 26 34 25 0 99 -45 115 -69 12 -21 24 -10 35 32 6 23
24 84 40 135 15 50 25 92 21 92 -3 0 -49 -32 -101 -71z"/>
<path d="M2490 2812 l-22 -17 21 -19 c11 -10 40 -21 65 -23 32 -4 43 -9 39
-19 -6 -17 54 -54 90 -54 16 0 38 -5 49 -11 15 -8 19 -8 14 0 -4 6 0 11 9 11
9 0 13 5 10 10 -5 8 -11 7 -21 -1 -8 -6 -17 -10 -19 -7 -3 3 1 10 9 17 10 9
20 9 39 0 l26 -12 -26 -20 c-21 -17 -29 -18 -45 -8 -11 7 -23 10 -26 7 -8 -9
2 -16 34 -24 24 -7 34 -3 58 19 l29 28 -39 18 c-21 9 -51 25 -66 35 -28 19
-86 27 -107 14 -6 -4 -11 -4 -10 1 4 21 -2 34 -13 27 -7 -5 -8 -3 -3 6 6 10
10 10 19 -3 8 -9 21 -13 37 -10 14 2 43 -2 64 -11 52 -22 57 -19 10 6 -22 12
-48 21 -58 19 -10 -1 -38 7 -63 18 -54 26 -75 26 -104 3z"/>
<path d="M1605 2612 c73 -44 204 -110 209 -105 3 3 12 0 21 -7 8 -7 15 -9 15
-4 0 5 4 4 8 -1 13 -19 62 -46 73 -40 5 4 8 1 7 -6 -2 -6 2 -13 9 -16 6 -2 10
3 9 13 -2 11 -17 22 -40 28 -34 10 -35 12 -17 23 16 10 23 8 43 -10 14 -13 43
-28 66 -35 23 -7 42 -17 42 -22 0 -14 -21 -12 -52 4 -34 18 -37 2 -4 -19 22
-15 54 -12 67 7 6 9 59 -28 59 -42 0 -5 -10 -10 -22 -12 -16 -2 -19 -6 -11
-11 7 -4 20 0 30 10 17 18 20 18 67 -5 33 -16 45 -26 37 -32 -9 -5 -4 -9 13
-12 15 -3 29 -2 31 2 5 8 -95 64 -335 188 -130 66 -175 96 -129 85 13 -3 21
-3 18 1 -4 4 -36 9 -73 11 -36 3 -85 9 -109 15 -60 14 -66 12 -32 -8z"/>
<path d="M2270 2608 c-38 -20 -45 -28 -45 -53 0 -24 6 -33 35 -46 65 -31 157
-28 194 6 86 80 -62 154 -184 93z m144 0 c-2 -4 0 -9 6 -13 5 -3 10 -1 10 5 0
7 5 6 14 -2 9 -8 10 -15 4 -19 -6 -4 -8 -20 -5 -35 4 -16 4 -23 1 -16 -5 10
-10 10 -24 -3 -28 -25 -82 -30 -124 -10 -30 15 -36 22 -34 46 1 15 4 26 7 24
2 -3 10 0 18 7 22 18 137 33 127 16z"/>
<path d="M6035 2407 c-44 -24 -123 -70 -175 -103 l-95 -59 -188 -5 -189 -5
156 -139 c89 -79 153 -144 149 -150 -4 -6 -41 -56 -83 -111 -96 -125 -98 -129
-73 -121 13 4 26 -1 38 -14 10 -11 23 -17 29 -13 6 4 -1 -6 -17 -22 -15 -15
-25 -30 -22 -33 3 -3 11 0 17 6 15 15 52 16 43 2 -3 -5 0 -10 8 -10 8 0 17 -7
21 -15 3 -8 12 -15 21 -15 9 0 38 -11 65 -25 27 -14 61 -25 76 -25 22 0 25 4
21 21 -4 16 -2 19 10 15 10 -4 13 -2 10 8 -6 14 26 33 46 28 4 -1 10 5 13 13
4 8 14 15 24 15 10 0 21 6 23 13 3 7 6 5 6 -5 1 -16 3 -16 21 2 12 12 25 18
29 15 5 -2 12 2 15 11 8 20 54 11 72 -14 7 -9 23 -17 36 -17 17 0 22 -5 20
-20 -3 -15 -1 -17 8 -8 7 6 18 9 25 6 15 -5 30 31 20 47 -3 5 -19 10 -36 10
-16 0 -29 4 -29 9 0 4 45 7 101 6 83 -3 99 -1 95 11 -6 15 18 15 42 1 9 -6 12
24 12 142 l0 150 -52 10 c-29 6 -82 15 -118 21 -36 6 -82 19 -103 28 l-39 17
58 2 c32 2 60 7 64 12 11 18 151 51 171 40 17 -9 19 -5 19 42 0 29 -3 50 -6
46 -3 -3 -18 5 -32 19 -15 13 -32 24 -39 24 -7 0 -16 6 -20 14 -4 7 -19 19
-32 25 -32 17 -15 31 39 32 106 2 106 25 2 62 -43 15 -94 27 -114 27 -20 0
-40 5 -43 10 -11 18 -39 10 -120 -33z"/>
<path d="M5100 2041 c-77 -41 -102 -159 -45 -208 48 -42 136 -19 168 44 35 67
30 121 -14 162 -28 26 -64 27 -109 2z m90 -41 c30 -30 26 -81 -9 -119 -55 -59
-130 -30 -117 46 4 21 7 46 8 55 1 9 6 14 10 12 4 -3 18 2 30 10 30 21 54 20
78 -4z"/>
<path d="M5381 1548 c-10 -18 -10 -20 0 -11 10 11 16 2 31 -45 10 -31 21 -65
23 -75 7 -29 65 -219 77 -249 12 -33 11 -32 50 -12 23 12 29 21 25 37 -15 66
-162 367 -183 374 -5 2 -15 -7 -23 -19z"/>
<path d="M6248 1538 c-16 -5 -28 -16 -28 -24 0 -8 -5 -14 -11 -14 -5 0 -8 4
-5 9 10 15 -33 20 -90 11 -30 -5 -62 -6 -71 -3 -11 4 -14 3 -9 -5 9 -15 11
-14 -147 -16 -108 -1 -131 -4 -141 -18 -8 -11 -17 -14 -27 -7 -8 5 -24 9 -37
9 -13 0 -36 7 -52 15 -41 21 -38 12 4 -13 51 -30 133 -51 213 -54 39 -1 70 -6
67 -10 -3 -4 3 -8 13 -9 10 0 27 -2 37 -4 11 -2 31 3 45 10 19 11 21 14 9 15
-25 0 -33 -4 -30 -14 2 -5 -4 -4 -12 3 -8 7 -20 10 -26 6 -5 -3 -17 0 -25 8
-12 13 -12 15 8 15 79 0 137 12 165 32 31 23 63 22 61 -2 0 -9 -2 -10 -5 -1
-4 8 -13 9 -35 1 -16 -5 -26 -14 -23 -19 3 -5 1 -9 -3 -9 -5 0 -17 -6 -26 -12
-15 -12 -14 -13 10 -12 40 1 74 14 68 25 -3 5 0 6 8 3 8 -3 38 6 68 19 41 18
49 25 36 30 -10 4 -16 3 -13 -2 3 -5 -8 -14 -24 -20 -18 -6 -30 -6 -30 0 0 5
6 9 13 9 7 0 20 8 28 18 9 9 25 22 35 29 23 14 18 15 -18 1z"/>
<path d="M0 1307 l0 -178 28 19 c15 11 38 32 51 46 13 14 29 23 35 19 6 -3 8
-3 4 2 -4 4 -3 14 3 21 8 9 -2 36 -37 101 -92 171 -84 174 -84 -30z"/>
<path d="M6200 1410 c-32 -18 -32 -19 -7 -14 45 10 31 -1 -47 -40 l-75 -36 14
-27 c14 -27 12 -43 -6 -43 -6 0 -9 6 -6 13 2 6 -2 24 -9 39 -12 23 -11 27 3
32 9 4 14 9 11 12 -7 7 -98 -38 -98 -48 0 -4 5 -8 10 -8 6 0 10 5 10 11 0 5 4
7 10 4 6 -4 5 -13 -2 -24 -28 -46 22 -66 87 -35 52 24 69 48 55 74 -6 12 -9
24 -6 28 4 3 12 -9 18 -26 15 -39 24 -40 69 -6 19 15 26 24 17 21 -13 -5 -18
-1 -18 13 0 11 -6 20 -12 20 -9 0 -8 3 2 10 8 5 11 12 7 16 -4 4 -2 13 4 21
15 17 11 16 -31 -7z"/>
<path d="M5084 1192 c-6 -4 -42 -47 -79 -97 -38 -49 -72 -91 -75 -93 -4 -1
-16 -9 -26 -17 -18 -14 -17 -14 11 -10 76 11 224 14 227 5 2 -6 17 -12 35 -14
22 -3 30 -1 27 8 -3 7 5 18 18 24 17 8 19 11 6 11 -9 1 -20 5 -23 11 -4 6 1 7
12 3 15 -5 16 -4 7 8 -6 8 -10 25 -9 38 l2 23 -17 -22 c-15 -20 -18 -21 -23
-5 -4 9 -5 21 -2 26 4 5 -1 6 -10 3 -11 -5 -14 -2 -9 10 5 13 2 15 -12 9 -18
-6 -18 -6 0 15 11 12 14 22 8 22 -7 0 -12 9 -12 21 0 12 -4 17 -11 14 -6 -4
-8 -13 -5 -21 3 -8 2 -14 -2 -14 -5 0 -12 11 -18 25 -5 15 -13 22 -20 17z"/>
<path d="M6122 1093 c-12 -3 -41 -21 -62 -42 -30 -28 -40 -46 -40 -69 0 -44 9
-61 41 -77 38 -20 71 -19 123 6 58 27 77 49 83 97 5 34 1 45 -20 66 -26 26
-61 31 -125 19z m52 -15 c5 -10 7 -10 12 0 5 10 10 9 21 -5 8 -10 12 -13 9 -6
-4 7 1 9 16 5 12 -3 17 -7 10 -10 -6 -2 -12 -11 -12 -19 0 -13 3 -13 15 -3 13
11 14 10 9 -4 -3 -9 -10 -16 -15 -16 -5 0 -8 -13 -7 -28 2 -34 -10 -55 -28
-48 -17 7 -28 -10 -12 -18 7 -3 2 -3 -11 0 -17 5 -21 3 -16 -7 6 -9 2 -11 -13
-7 -13 4 -22 1 -22 -5 0 -8 -4 -7 -9 2 -7 11 -9 11 -14 0 -4 -11 -6 -11 -7 1
-1 18 -46 53 -58 46 -5 -3 -9 1 -9 9 0 8 4 12 8 9 10 -6 19 9 21 40 1 14 8 26
15 26 7 0 13 7 13 15 0 9 6 12 17 8 12 -5 14 -3 8 7 -6 10 -4 12 8 7 10 -3 17
-2 17 3 0 14 27 12 34 -2z"/>
<path d="M4415 1062 c-6 -4 -37 -16 -70 -27 -33 -10 -65 -23 -72 -28 -7 -5
-22 -6 -35 -3 -13 3 -17 3 -9 0 13 -6 -100 -63 -127 -64 -7 0 -10 -5 -7 -10 4
-6 10 -8 14 -6 4 3 26 6 48 7 29 2 39 7 36 16 -6 15 13 18 22 3 12 -19 26 -10
20 11 -6 19 -5 20 8 8 8 -8 13 -17 10 -21 -2 -5 5 -8 16 -8 11 0 23 5 26 10 4
6 11 8 16 5 5 -4 9 -1 9 4 0 6 5 11 11 11 6 0 8 -7 5 -16 -3 -8 -2 -12 4 -9 6
3 10 12 10 18 0 19 111 59 127 46 24 -20 14 -3 -17 30 -34 35 -32 34 -45 23z"/>
<path d="M5520 1030 c13 -8 13 -10 0 -10 -8 0 10 -15 40 -33 41 -24 54 -38 52
-52 -2 -11 -3 -32 -2 -47 0 -25 -2 -27 -32 -23 -29 4 -30 4 -8 -4 14 -5 19 -9
12 -10 -8 -1 -6 -8 8 -23 11 -12 20 -27 20 -32 0 -6 5 -3 11 7 8 13 14 15 30
7 22 -12 25 -30 5 -30 -16 0 -13 -90 5 -137 6 -15 10 -30 9 -32 -1 -2 2 -7 7
-10 5 -3 14 -17 20 -31 l11 -25 11 25 c9 22 10 21 7 -15 -2 -22 -7 -48 -11
-57 -9 -23 -64 -63 -98 -72 -15 -3 -25 -11 -22 -17 4 -6 21 -1 43 11 110 63
167 153 163 260 -1 25 5 64 13 86 9 26 11 46 5 57 -6 10 -5 18 1 22 33 20 -21
113 -87 152 -43 25 -44 25 -66 7 -12 -11 -25 -23 -29 -28 -9 -13 -87 23 -99
46 -5 10 -15 18 -22 18 -7 0 -6 -4 3 -10z"/>
<path d="M5302 984 c-24 -17 -48 -24 -102 -30 -82 -10 -97 -15 -97 -29 0 -8 5
-11 10 -8 5 3 12 1 16 -5 4 -6 12 -4 21 6 13 14 12 15 -3 9 -9 -3 -17 -2 -17
3 0 12 27 13 34 2 3 -5 19 -7 35 -6 17 1 31 -2 31 -7 0 -5 5 -9 11 -9 5 0 8 4
5 8 -3 5 1 9 9 9 22 0 18 -12 -9 -27 -14 -7 -32 -10 -42 -6 -22 8 -84 -3 -84
-16 0 -5 4 -7 10 -3 5 3 32 -6 59 -20 27 -13 56 -23 63 -22 7 2 9 2 5 -1 -4
-2 -2 -11 4 -19 10 -11 10 -14 -2 -11 -8 2 -17 6 -20 11 -3 4 -21 4 -39 0 -29
-5 -31 -8 -15 -14 16 -6 16 -8 4 -8 -25 -1 -45 -29 -31 -43 15 -15 15 -31 0
-22 -8 5 -9 2 -5 -10 4 -10 7 -31 7 -47 0 -16 3 -28 8 -28 19 3 33 -2 27 -11
-3 -5 9 -19 27 -31 19 -12 47 -44 63 -71 33 -54 122 -144 133 -133 3 3 2 9 -4
13 -17 11 -45 75 -37 83 5 4 17 9 28 11 26 5 21 32 -11 76 -28 36 -26 45 17
67 22 12 29 13 29 3 0 -9 3 -8 10 2 12 18 14 40 2 25 -4 -5 -14 -11 -22 -12
-8 -1 -27 -4 -41 -7 -43 -10 -46 21 -4 38 19 8 35 17 35 20 0 3 -11 0 -25 -6
-31 -14 -43 -4 -24 19 12 15 12 16 -4 10 -10 -4 -27 -7 -38 -7 -12 0 -27 -13
-37 -30 -19 -33 -39 -45 -39 -24 0 8 2 12 5 9 3 -2 14 13 24 35 11 22 24 40
30 40 5 0 6 5 3 10 -3 6 -1 11 4 11 21 3 26 4 40 13 8 5 32 14 55 21 27 9 40
18 38 28 -2 11 4 14 20 10 23 -5 23 -5 3 11 -20 17 -19 17 8 13 15 -2 27 0 27
4 0 5 -13 9 -30 9 -16 0 -30 -4 -30 -10 0 -5 -4 -10 -10 -10 -5 0 -9 6 -7 13
1 8 -10 12 -33 11 -58 -2 -81 -9 -101 -35 -21 -27 -24 -21 -7 15 6 14 20 28
30 32 11 3 17 8 14 11 -3 3 -17 -2 -31 -11 -26 -17 -26 -17 -15 4 10 18 9 22
-9 27 -20 5 -20 6 3 24 13 10 35 23 48 28 13 6 16 10 8 10 -9 1 -26 -6 -38
-15z"/>
<path d="M4480 892 c-47 -3 -59 -6 -45 -12 19 -8 19 -9 -2 -9 -12 -1 -23 3
-25 7 -1 4 -27 6 -55 4 -36 -3 -51 -8 -47 -15 4 -8 2 -7 -7 1 -14 13 -174 17
-217 5 -19 -4 -22 -10 -17 -27 3 -11 8 -31 10 -43 8 -52 17 -83 25 -83 5 0 7
-7 4 -15 -4 -9 0 -15 10 -15 13 0 14 4 4 26 -11 23 -10 29 11 45 13 11 32 19
43 19 10 0 17 3 15 8 -3 4 38 7 91 7 120 1 192 8 185 18 -2 4 8 5 23 1 25 -6
26 -5 20 20 -5 19 -3 26 8 26 8 0 16 -7 20 -15 3 -8 1 -15 -4 -15 -6 0 -10 -4
-10 -10 0 -5 9 -10 20 -10 22 0 28 26 8 33 -9 3 -5 13 11 31 22 24 23 26 5 24
-10 -1 -48 -4 -84 -6z"/>
<path d="M0 420 l0 -420 1095 0 1095 0 0 145 c0 80 -2 145 -4 145 -3 0 -39
-44 -82 -98 -42 -53 -80 -98 -84 -100 -4 -2 -34 9 -66 24 -167 75 -521 210
-654 249 -63 18 -176 47 -250 63 -133 30 -255 76 -245 92 3 4 -2 13 -9 19 -11
9 -16 9 -22 0 -4 -7 -3 -9 4 -5 6 3 13 2 17 -4 11 -17 -6 -12 -130 41 -179 76
-653 269 -662 269 -1 0 -3 -189 -3 -420z"/>
<path d="M6280 744 c-63 -30 -116 -58 -118 -64 -2 -5 -15 -10 -29 -10 -38 0
-193 -76 -193 -94 0 -9 -5 -16 -11 -16 -5 0 -7 5 -4 10 9 15 -8 12 -35 -7 -34
-23 -39 -32 -34 -61 4 -19 1 -23 -11 -18 -11 4 -14 2 -9 -6 4 -7 3 -8 -5 -4
-9 6 -9 11 0 22 6 8 8 14 4 14 -4 0 -2 7 5 15 7 8 10 15 6 15 -3 0 -1 12 4 26
7 16 7 23 0 19 -6 -3 -10 -12 -10 -20 0 -7 -7 -21 -16 -29 -8 -9 -12 -20 -9
-26 4 -6 2 -9 -3 -8 -5 2 -32 -23 -61 -54 l-52 -57 140 72 c111 56 137 73 125
82 -33 24 18 65 123 99 57 19 78 14 70 -15 -3 -13 -1 -17 6 -12 7 4 18 8 25 9
8 2 17 6 20 9 4 4 -2 5 -13 3 -33 -5 -24 33 14 59 42 29 49 29 53 1 2 -13 8
-21 13 -18 6 3 9 7 8 10 -1 3 -4 12 -8 21 -4 11 2 19 22 27 51 19 60 20 74 11
12 -7 12 -12 1 -29 -12 -19 -11 -20 8 -8 26 17 25 37 -2 47 l-23 8 23 7 c12 4
22 12 22 17 0 5 -1 9 -2 8 -2 -1 -55 -25 -118 -55z"/>
<path d="M1690 722 c-84 -41 -100 -101 -35 -136 47 -25 103 -28 150 -7 51 22
66 42 68 83 2 29 -2 35 -37 51 -21 9 -46 17 -55 17 -9 0 -21 4 -26 9 -6 6 -31
0 -65 -17z"/>
<path d="M6185 565 c-186 -81 -690 -325 -674 -325 3 0 41 -9 85 -21 43 -11 86
-22 94 -24 36 -8 106 -27 120 -32 8 -3 21 -5 28 -4 7 1 20 -5 29 -14 8 -9 22
-14 29 -11 8 3 14 1 14 -5 0 -6 7 -8 16 -5 8 3 26 -1 40 -10 13 -9 24 -13 24
-9 0 4 7 2 15 -5 8 -7 12 -16 9 -21 -3 -5 0 -9 5 -9 6 0 11 4 11 8 0 5 7 9 15
9 8 0 15 -5 15 -10 0 -5 11 -7 25 -5 17 4 25 1 25 -9 0 -10 6 -13 17 -9 15 6
14 4 -2 -16 -11 -13 -13 -17 -5 -11 11 10 17 9 32 -4 16 -14 18 -15 13 -1 -4
9 0 18 10 22 11 4 15 2 13 -6 -9 -26 19 -34 115 -37 l97 -2 0 331 c0 181 -1
330 -2 329 -2 -1 -97 -43 -213 -94z"/>
<path d="M1694 441 c0 -8 -9 -20 -21 -26 -21 -11 -21 -12 12 -24 19 -6 43 -14
54 -16 10 -2 33 -11 51 -20 17 -9 43 -15 57 -13 18 2 36 -6 55 -24 46 -42 128
-40 128 4 0 27 -84 64 -114 51 -16 -8 -23 -6 -31 10 -5 11 -30 27 -53 35 -42
14 -46 13 -75 -8 l-32 -23 24 26 c26 28 23 31 -30 40 -19 3 -26 -1 -25 -12z"/>
<path d="M2468 380 c-16 -12 -28 -31 -28 -43 0 -68 114 -147 189 -131 20 5 41
8 48 7 7 0 12 2 11 6 -1 3 5 19 12 34 12 25 12 33 -1 55 -42 75 -176 117 -231
72z"/>
<path d="M5265 229 c-27 -5 -97 -13 -155 -19 -140 -14 -322 -41 -337 -49 -7
-4 -9 -12 -4 -20 7 -11 49 -8 247 18 313 42 422 59 442 71 21 12 -121 11 -193
-1z"/>
</g>
</svg>
